<svg id="Layer_1" data-name="Layer 1" xmlns="http://www.w3.org/2000/svg" viewBox="0 0 90 90"><defs><style>.cls-1{fill:#0093d1;}</style></defs><title>FINAL ICON SET</title><g id="_37" data-name="37"><path class="cls-1" d="M85.94,74.5H4.06A4.06,4.06,0,0,1,0,70.44V19.56A4.06,4.06,0,0,1,4.06,15.5H85.94A4.06,4.06,0,0,1,90,19.56V70.44A4.06,4.06,0,0,1,85.94,74.5ZM3.21,72.32a2.05,2.05,0,0,0,.84.18H85.94a2,2,0,0,0,.52-0.07L54,42,46,47.72a2.52,2.52,0,0,1-2.89,0l-8.31-5.86Zm52.5-31.48L87.91,71A2.07,2.07,0,0,0,88,70.44V19.56a2,2,0,0,0-.42-1.24Zm-53.59-22a2,2,0,0,0-.12.7V70.44a2,2,0,0,0,0,.25l31.09-30Zm1.59-1.33L44.23,46.09a0.51,0.51,0,0,0,.59,0L85.28,17.5H4.06A2.07,2.07,0,0,0,3.71,17.53Z"/></g></svg>